<svg height="512pt" viewBox="0 -23 512.00055 512" width="512pt" xmlns="http://www.w3.org/2000/svg"><path d="m381.820312 214.558594c-59.152343 0-107.277343-48.125-107.277343-107.28125 0-12.683594 2.195312-25.101563 6.519531-36.90625 1.46875-4.007813 5.902344-6.070313 9.914062-4.597656 4.003907 1.46875 6.0625 5.90625 4.59375 9.914062-3.699218 10.097656-5.574218 20.726562-5.574218 31.589844 0 50.632812 41.191406 91.828125 91.824218 91.828125 4.269532 0 7.726563 3.457031 7.726563 7.726562s-3.457031 7.726563-7.726563 7.726563zm0 0" fill="#8b9ba9"/><path d="m285.355469 38.359375c-13.554688-.03125-38.707031.035156-63.050781.054687-13.644532.011719-26.730469 5.433594-36.378907 15.085938l-169.71875 169.71875c-21.609375 21.609375-21.609375 56.644531 0 78.25l52.871094 52.871094c21.605469 21.609375 56.640625 21.609375 78.25 0l169.71875-169.71875c9.648437-9.652344 15.074219-22.734375 15.085937-36.378906.019532-24.34375.085938-49.496094.054688-63.050782-.03125-12.777344-5.695312-24.363281-14.078125-32.757812-8.390625-8.378906-19.976563-14.042969-32.753906-14.074219zm15.457031 46.828125c0 8.519531-6.933594 15.453125-15.453125 15.453125s-15.453125-6.933594-15.453125-15.453125 6.933594-15.453125 15.453125-15.453125 15.453125 6.933594 15.453125 15.453125zm0 0" fill="#6c7a88"/><path d="m318.113281 52.433594c-5.433593-5.421875-12.210937-9.699219-19.773437-12.054688-5.445313 8.917969-4.339844 20.710938 3.371094 28.433594 4.625 4.632812 7.285156 10.621094 7.296874 16.433594.019532 8.613281 0 21.691406-.019531 36.839844-.015625 8.429687-.027343 17.335937-.035156 26.136718-.003906 7.558594-2.949219 14.664063-8.296875 20.007813l-169.71875 169.71875c-12.535156 12.535156-32.933594 12.539062-45.46875 0l-52.871094-52.871094c-7.875-7.871094-20-8.886719-28.980468-3.066406 2.691406 7.09375 6.878906 13.746093 12.589843 19.457031l52.871094 52.871094c21.609375 21.609375 56.640625 21.609375 78.25 0l169.71875-169.722656c9.652344-9.648438 15.078125-22.730469 15.085937-36.378907.023438-24.34375.085938-49.492187.054688-63.050781-.027344-12.773438-5.695312-24.359375-14.074219-32.753906zm0 0" fill="#35404a"/><path d="m226.355469 93.929688c-6.035157-6.035157-15.816407-6.035157-21.851563 0l-158.796875 158.792968c-5.304687 5.308594-5.320312 13.925782 0 19.246094l52.871094 52.871094c5.308594 5.308594 13.925781 5.320312 19.246094 0l158.792969-158.792969c6.035156-6.035156 6.035156-15.820313 0-21.855469zm0 0" fill="#4d5967"/><path d="m276.621094 144.191406-50.265625-50.261718c-6.035157-6.035157-15.816407-6.035157-21.851563 0l-10.929687 10.925781 50.265625 50.261719-32.65625 32.65625-50.265625-50.261719-10.925781 10.925781 50.265624 50.261719-48.855468 48.855469-50.261719-50.261719-10.925781 10.925781 50.261718 50.261719-54.128906 54.128906 12.230469 12.230469c5.308594 5.308594 13.929687 5.320312 19.25 0l44.5-44.503906 10.929687-10.925782 48.851563-48.855468 10.925781-10.925782 43.585938-43.582031c6.03125-6.035156 6.03125-15.820313 0-21.855469zm0 0" fill="#35404a"/><path d="m273.527344 321.160156-31.273438 31.273438c-1.449218 1.449218-2.261718 3.414062-2.261718 5.460937v17.402344h-17.402344c-2.050782 0-4.015625.816406-5.464844 2.265625l-6.140625 6.140625c-1.449219 1.449219-2.261719 3.414063-2.261719 5.464844v17.402343h-17.40625c-2.046875 0-4.011718.8125-5.460937 2.261719l-7.78125 7.78125c-3.863281 3.863281-6.035157 9.105469-6.035157 14.566407v19.722656c0 4.265625 1.730469 8.128906 4.527344 10.925781l150.355469-106.648437c.003906.003906.007813.003906.007813.007812l-43.714844-43.714844zm0 0" fill="#d3cdbf"/><path d="m308.519531 331.539062c-2.28125 1.199219-4.410156 2.746094-6.230469 4.570313h-.003906l-125.71875 125.71875c2.796875 2.796875 6.660156 4.527344 10.925782 4.527344h19.722656c5.464844 0 10.703125-2.171875 14.566406-6.035157l105.144531-105.140624 7.695313-22.46875c-7.984375-5.238282-17.992188-5.457032-26.101563-1.171876zm0 0" fill="#a19b8d"/><path d="m511.980469 246.894531c-1.238281-66.214843-55.578125-119.953125-121.800781-120.496093-34.375-.277344-65.542969 13.539062-88.003907 36.046874l-40.285156 40.265626c-24.148437 24.136718-24.152344 63.28125-.007813 87.425781 10.621094 10.621093 75.660157 75.660156 86.308594 86.308593 24.140625 24.140626 63.277344 24.140626 87.414063 0l37.867187-37.867187c24.246094-22.894531 39.179688-55.546875 38.507813-91.683594zm-93.105469 21.523438-.46875-.46875c-4.773438-4.777344-7.566406-11.269531-7.375-18.019531.011719-.382813.011719-.765626.007812-1.152344-.214843-11.496094-10.109374-21.292969-21.617187-21.425782h-.425781c-7.125.035157-13.96875-2.78125-19.007813-7.820312-11.625-11.628906-4.707031-31.546875 11.625-33.460938 2.484375-.292968 5-.441406 7.539063-.441406l.542968.003906c34.132813.277344 62.421876 28.257813 63.058594 62.367188.058594 3.09375-.101562 6.144531-.46875 9.148438-1.972656 16.15625-21.902344 22.777343-33.410156 11.269531zm0 0" fill="#4d5967"/><path d="m511.980469 246.894531c-1.132813-60.425781-46.488281-110.457031-104.742188-119.152343-4.1875 14.75 3.140625 30.660156 17.617188 36.832031 33.480469 14.269531 55.550781 46.808593 56.222656 82.898437.484375 25.863282-10.023437 50.882813-28.824219 68.636719l-38.503906 38.484375c-5.835938 5.835938-13.597656 9.050781-21.851562 9.050781-8.253907 0-16.015626-3.214843-21.855469-9.050781l-86.308594-86.3125c-10.183594-10.179688-25.703125-11.773438-37.550781-4.773438 2.792968 9.746094 8.019531 18.949219 15.699218 26.628907 10.621094 10.621093 75.660157 75.660156 86.308594 86.308593 24.140625 24.140626 63.277344 24.140626 87.414063 0l37.867187-37.867187c24.246094-22.894531 39.179688-55.546875 38.507813-91.683594zm0 0" fill="#35404a"/><path d="m381.820312 214.558594c-4.265624 0-7.726562-3.457032-7.726562-7.726563s3.460938-7.726562 7.726562-7.726562c50.632813 0 91.828126-41.191407 91.828126-91.828125 0-50.632813-41.191407-91.824219-91.828126-91.824219-38.386718 0-73.046874 24.207031-86.25 60.234375-1.46875 4.007812-5.902343 6.066406-9.910156 4.597656-4.007812-1.46875-6.066406-5.90625-4.597656-9.914062 15.421875-42.089844 55.914062-70.371094 100.757812-70.371094 59.15625 0 107.28125 48.125 107.28125 107.277344 0 59.15625-48.125 107.28125-107.28125 107.28125zm0 0" fill="#8b9ba9"/></svg>